<?xml version="1.0" standalone="no"?>
<!DOCTYPE svg PUBLIC "-//W3C//DTD SVG 20010904//EN"
 "http://www.w3.org/TR/2001/REC-SVG-20010904/DTD/svg10.dtd">
<svg version="1.0" xmlns="http://www.w3.org/2000/svg"
 width="512.000000pt" height="512.000000pt" viewBox="0 0 512.000000 512.000000"
 preserveAspectRatio="xMidYMid meet">
<metadata>
Created by potrace 1.14, written by Peter Selinger 2001-2017
</metadata>
<g transform="translate(0.000000,512.000000) scale(0.100000,-0.100000)"
fill="#000000" stroke="none">
<path d="M735 5109 c-33 -19 -66 -52 -83 -84 -12 -25 -15 -69 -15 -245 1 -235
8 -276 63 -355 16 -22 199 -210 407 -418 l379 -377 40 5 c79 10 75 -36 72 715
l-3 666 -24 36 c-45 65 -30 63 -441 65 -265 2 -381 0 -395 -8z"/>
<path d="M3567 4164 c-1 -1 -21 -4 -44 -8 -99 -13 -117 -29 -567 -475 -235
-234 -441 -446 -457 -470 -48 -74 -36 -152 34 -229 l21 -22 -26 -28 c-58 -61
-74 -141 -42 -205 21 -42 406 -431 463 -468 56 -36 120 -39 171 -8 50 31 1338
1322 1350 1354 24 63 0 158 -51 198 l-29 22 36 40 c43 47 54 74 54 123 -1 83
-57 153 -135 168 -32 6 -772 13 -778 8z"/>
<path d="M678 3955 c-15 -9 -31 -28 -35 -42 -9 -40 -10 -3709 0 -3768 5 -27
18 -62 29 -78 39 -54 137 -82 203 -57 15 6 308 291 652 635 344 344 628 625
631 625 4 0 281 -274 617 -608 480 -479 621 -614 660 -633 l50 -24 435 -3 435
-2 40 23 c45 26 85 87 85 133 0 89 50 36 -1122 1208 -853 853 -1117 1112
-1145 1121 -35 12 -56 12 -113 -1 -15 -3 -122 -102 -262 -241 l-237 -236 -3
539 -3 539 -25 45 c-15 27 -180 201 -416 438 -414 414 -419 419 -476 387z"/>
</g>
</svg>
