<?xml version="1.0" standalone="no"?>
<!DOCTYPE svg PUBLIC "-//W3C//DTD SVG 20010904//EN"
 "http://www.w3.org/TR/2001/REC-SVG-20010904/DTD/svg10.dtd">
<svg version="1.0" xmlns="http://www.w3.org/2000/svg"
 width="1024.000000pt" height="1024.000000pt" viewBox="0 0 1024.000000 1024.000000"
 preserveAspectRatio="xMidYMid meet">
<metadata>
Created by potrace 1.14, written by Peter Selinger 2001-2017
</metadata>
<g transform="translate(0.000000,1024.000000) scale(0.100000,-0.100000)"
fill="#000000" stroke="none">
<path d="M1510 10227 c-89 -30 -151 -82 -198 -166 -25 -44 -27 -66 -29 -486
-2 -354 0 -431 13 -490 17 -75 67 -184 112 -243 46 -61 1541 -1552 1556 -1552
8 0 17 -4 20 -9 11 -16 100 -9 138 12 48 26 87 98 78 147 -3 19 -3 49 0 65 3
17 3 53 0 80 -3 28 -2 74 1 103 3 29 2 55 -1 57 -3 2 -5 19 -3 37 2 18 3 58 2
88 0 30 0 60 0 65 0 6 1 45 2 88 1 43 0 80 -3 82 -2 3 -1 30 2 60 3 31 3 58 0
60 -3 2 -3 29 0 60 3 31 2 58 -2 61 -5 3 -6 9 -3 14 3 5 5 37 5 72 0 35 -1 71
-1 81 0 9 0 37 0 62 0 25 0 52 0 60 0 8 0 35 0 60 0 25 0 51 0 58 -1 6 0 32 0
57 0 25 0 52 0 60 0 8 0 73 1 143 2 70 1 130 -2 132 -2 2 -1 30 2 60 3 31 3
58 0 60 -3 2 -3 29 0 60 3 31 3 58 0 60 -3 2 -3 29 0 60 3 31 2 58 -2 61 -5 3
-6 9 -4 13 4 6 7 81 5 121 0 8 0 58 1 110 1 52 1 97 1 100 -1 3 -3 39 -5 81
-7 131 -67 223 -181 279 l-50 25 -710 2 c-522 1 -719 -2 -745 -10z"/>
<path d="M7208 8324 c-3 -3 -41 -7 -84 -8 -44 -2 -93 -6 -111 -9 -53 -10 -165
-58 -223 -96 -32 -21 -413 -394 -923 -905 -811 -810 -871 -873 -900 -934 -63
-136 -31 -265 98 -396 36 -36 60 -66 54 -66 -12 0 -85 -73 -123 -123 -70 -94
-78 -237 -19 -343 31 -55 904 -934 928 -934 8 0 15 -4 15 -8 0 -10 90 -43 100
-37 5 3 11 1 14 -3 5 -8 72 -7 116 1 8 2 40 15 71 29 50 23 214 183 1368 1337
1458 1458 1366 1357 1366 1496 0 91 -23 185 -46 185 -5 0 -9 6 -9 14 0 16 -59
70 -107 98 l-32 19 60 60 c32 32 59 61 59 63 0 3 11 16 24 30 37 40 59 125 53
204 -6 80 -7 86 -32 136 -23 48 -99 126 -140 145 -17 7 -38 17 -47 22 -9 5
-52 11 -95 14 -43 4 -83 8 -90 10 -7 2 -15 1 -17 -4 -3 -4 -26 -5 -50 -1 -25
4 -50 4 -56 0 -6 -3 -32 -4 -59 0 -27 3 -57 3 -66 0 -10 -4 -37 -3 -61 0 -24
4 -48 4 -54 0 -6 -4 -30 -4 -53 0 -24 3 -54 3 -68 0 -13 -4 -33 -4 -43 0 -11
4 -37 4 -58 0 -20 -4 -40 -5 -42 -2 -3 2 -34 4 -68 3 -83 -2 -71 -2 -239 -1
-80 1 -150 0 -155 -1 -5 -1 -13 -1 -19 0 -5 1 -37 2 -70 1 -103 -1 -147 0
-155 5 -4 2 -10 2 -12 -1z"/>
<path d="M1364 7912 c-16 -8 -40 -28 -54 -45 l-25 -31 -2 -3793 c-2 -2873 0
-3793 9 -3793 6 0 9 -3 5 -6 -12 -12 44 -106 88 -149 39 -38 92 -70 135 -84 8
-2 56 -4 105 -5 80 -1 96 3 143 27 41 22 321 296 1302 1277 l1250 1250 1193
-1193 c656 -655 1212 -1208 1237 -1228 63 -51 122 -82 215 -112 l80 -26 810 0
c578 -1 823 3 855 11 88 22 181 100 221 185 19 40 23 65 23 143 0 84 -3 101
-27 148 -22 42 -473 498 -2222 2247 -1207 1207 -2197 2195 -2200 2195 -3 0
-18 8 -32 17 -88 58 -248 52 -331 -12 -7 -5 -209 -205 -448 -442 -239 -238
-439 -433 -445 -433 -6 0 -8 -4 -5 -8 6 -9 -33 -46 -41 -39 -2 3 -4 50 -4 104
1 54 1 127 0 163 0 36 0 72 0 80 0 8 0 69 0 135 0 66 0 127 0 135 2 44 -1 115
-5 121 -2 4 -1 10 4 13 4 3 5 30 2 61 -3 31 -3 58 0 60 3 2 3 29 0 60 -3 31
-3 58 0 60 3 2 3 29 0 60 -3 31 -3 58 0 60 3 2 3 29 0 60 -3 31 -3 58 0 60 3
2 3 29 0 60 -3 31 -3 58 0 60 3 2 3 29 0 60 -3 31 -2 58 2 61 5 3 6 9 3 13 -4
7 -6 77 -4 131 0 8 0 60 -1 115 0 55 0 141 0 190 1 91 -1 111 -21 200 -15 66
-71 178 -117 234 -20 25 -373 382 -784 793 -642 641 -753 749 -787 758 -49 13
-90 10 -127 -8z"/>
</g>
</svg>
